<?xml version="1.0" standalone="no"?>
<!DOCTYPE svg PUBLIC "-//W3C//DTD SVG 20010904//EN"
 "http://www.w3.org/TR/2001/REC-SVG-20010904/DTD/svg10.dtd">
<svg version="1.0" xmlns="http://www.w3.org/2000/svg"
 width="512.000000pt" height="512.000000pt" viewBox="0 0 512.000000 512.000000"
 preserveAspectRatio="xMidYMid meet">
<metadata>
Created by potrace 1.11, written by Peter Selinger 2001-2013
</metadata>
<g transform="translate(0.000000,512.000000) scale(0.100000,-0.100000)"
fill="#000000" stroke="none">
<path d="M1317 4528 c-24 -29 -149 -188 -277 -353 -128 -165 -238 -306 -244
-314 -8 -10 -13 -177 -16 -545 l-5 -531 -61 -6 c-74 -7 -119 -32 -156 -84 -43
-61 -47 -122 -13 -190 35 -73 84 -106 168 -114 l62 -6 5 -393 c5 -375 6 -394
24 -408 15 -10 53 -14 147 -14 185 0 169 -40 169 437 l0 383 273 -2 272 -3 5
-393 c5 -375 6 -394 24 -408 15 -10 53 -14 147 -14 185 0 169 -40 169 436 l0
384 50 0 c55 0 100 18 142 58 l27 25 63 -31 c130 -63 254 -88 379 -78 93 8
160 26 260 73 l76 35 29 -27 c40 -38 85 -55 144 -55 l50 0 0 -390 c0 -377 1
-391 20 -410 18 -18 33 -20 150 -20 117 0 132 2 150 20 19 19 20 33 20 410 l0
390 275 0 275 0 0 -390 c0 -377 1 -391 20 -410 18 -18 33 -20 150 -20 117 0
132 2 150 20 19 19 20 33 20 410 l0 390 52 0 c68 0 128 30 163 80 94 136 3
310 -163 310 l-52 0 0 529 0 529 -271 349 c-149 191 -281 358 -292 371 -13 14
-32 22 -53 22 -30 0 -47 -19 -312 -359 -154 -197 -285 -368 -291 -379 -8 -14
-11 -181 -11 -541 l0 -521 -37 0 c-92 0 -180 -56 -204 -128 -14 -43 -24 -52
-100 -91 -171 -89 -353 -91 -527 -5 -89 43 -94 47 -116 97 -37 84 -104 127
-198 127 l-38 0 -1 513 c-1 281 -4 522 -7 535 -4 12 -135 186 -291 387 -270
347 -286 365 -317 365 -27 0 -40 -9 -77 -52z m2741 -390 c105 -136 192 -249
192 -252 0 -3 -182 -6 -405 -6 -223 0 -405 2 -405 5 0 3 91 123 202 266 156
200 205 257 213 246 5 -7 97 -124 203 -259z m-2468 21 c102 -132 191 -248 199
-259 13 -20 10 -20 -394 -20 -267 0 -406 3 -403 10 7 22 393 510 403 510 5 -1
93 -109 195 -241z m280 -894 l0 -486 -77 3 -78 3 -5 250 c-5 236 -6 252 -28
293 -34 63 -89 120 -146 150 -44 23 -63 27 -141 27 -75 0 -98 -4 -139 -24 -64
-31 -118 -88 -153 -159 -30 -62 -28 -23 -33 -510 l0 -33 -77 3 -78 3 -3 470
c-1 259 0 476 3 483 3 9 109 12 480 12 l475 0 0 -485z m2455 0 l0 -480 -80 0
-80 0 -5 250 c-5 247 -5 251 -32 300 -34 64 -79 110 -143 143 -43 23 -62 27
-140 27 -78 0 -97 -4 -140 -27 -60 -32 -115 -87 -147 -148 -22 -43 -23 -58
-28 -295 l-5 -250 -80 0 -80 0 -3 470 c-1 259 0 476 3 483 3 10 105 12 482 10
l478 -3 0 -480z m-2843 89 c15 -8 40 -30 55 -51 l28 -36 3 -244 3 -243 -178 2
-178 3 -3 210 c-2 116 0 224 3 242 8 43 71 111 120 128 44 16 103 11 147 -11z
m2449 0 c38 -19 77 -69 89 -114 6 -23 9 -124 8 -247 l-3 -208 -180 0 -180 0
-3 215 c-2 177 0 222 13 257 18 48 72 100 113 109 15 3 32 7 37 9 16 5 78 -7
106 -21z m-1821 -724 c28 -28 25 -64 -6 -89 -26 -21 -34 -21 -713 -21 -764 0
-731 -3 -731 65 0 68 -34 65 737 65 680 0 693 0 713 -20z m2450 0 c11 -11 20
-31 20 -45 0 -14 -9 -34 -20 -45 -20 -20 -33 -20 -715 -20 -682 0 -695 0 -715
20 -27 27 -26 75 2 94 20 14 104 16 715 16 680 0 693 0 713 -20z m-3580 -586
l0 -345 -32 3 -33 3 -3 330 c-1 181 0 336 3 342 2 7 18 13 35 13 l30 0 0 -346z
m890 0 l0 -345 -32 3 -33 3 -3 330 c-1 181 0 336 3 342 2 7 18 13 35 13 l30 0
0 -346z m1565 1 l0 -340 -35 0 -35 0 -3 330 c-1 181 0 336 3 343 3 8 17 12 37
10 l33 -3 0 -340z m890 0 l0 -340 -35 0 -35 0 -3 330 c-1 181 0 336 3 343 3 8
17 12 37 10 l33 -3 0 -340z"/>
<path d="M2595 1199 c-147 -23 -145 -22 -145 -55 0 -26 1 -27 51 -21 l52 6 -7
-37 c-3 -20 -6 -92 -6 -160 0 -108 -2 -123 -17 -129 -36 -13 -38 -53 -3 -53
16 0 18 -13 22 -135 2 -109 6 -137 20 -151 9 -9 24 -14 32 -11 13 5 16 24 16
105 0 55 3 126 6 160 l7 61 49 10 c69 15 68 16 68 -37 0 -62 35 -134 72 -146
40 -14 84 9 104 54 12 27 25 40 44 44 15 3 34 12 43 20 14 14 16 12 22 -26 8
-48 44 -88 79 -88 23 0 76 49 76 71 0 22 17 6 29 -26 26 -74 86 -71 130 7 l30
51 6 -39 c8 -52 18 -69 41 -69 15 0 22 14 34 76 24 113 58 199 81 199 5 0 8
-48 8 -107 -2 -121 8 -158 47 -175 34 -16 71 4 99 55 l21 37 13 -35 c24 -69
96 -54 135 28 25 53 26 53 41 -20 7 -34 37 -63 65 -63 27 0 69 53 100 126 30
71 38 118 19 112 -6 -2 -24 -37 -40 -78 -32 -82 -55 -118 -66 -106 -11 11 -4
202 12 355 13 132 10 151 -27 151 -49 0 -56 -14 -63 -130 -7 -101 -9 -109 -26
-100 -64 35 -105 -6 -173 -179 -30 -73 -52 -111 -66 -111 -6 0 -10 53 -10 133
0 104 -3 137 -16 155 -30 43 -82 20 -122 -56 l-29 -55 1 59 c1 58 0 59 -28 62
-40 5 -49 -9 -57 -87 -6 -72 -58 -201 -80 -201 -8 0 -11 39 -8 148 l4 147 -30
3 c-46 4 -55 -9 -66 -84 -18 -134 -50 -207 -80 -188 -8 5 -10 33 -4 103 13
166 14 156 -20 159 -45 4 -54 -7 -64 -83 -10 -71 -35 -117 -65 -123 -15 -3
-17 2 -11 42 20 132 -50 223 -117 152 -13 -13 -32 -26 -43 -28 -11 -2 -25 -14
-32 -28 -14 -28 -38 -37 -97 -39 l-38 -1 6 53 c3 28 9 100 12 160 8 123 -7
110 139 130 67 9 90 16 90 27 0 23 -126 22 -270 -1z m293 -291 c28 -36 25
-172 -4 -161 -36 14 -57 110 -34 154 12 22 23 24 38 7z m992 -38 c0 -11 -9
-49 -21 -83 -35 -107 -69 -140 -69 -69 0 49 26 136 46 157 22 21 44 19 44 -5z
m-999 -162 c11 -4 12 -9 1 -32 -14 -32 -41 -44 -53 -25 -5 8 -9 36 -9 63 l0
49 23 -25 c13 -14 30 -27 38 -30z"/>
<path d="M927 1195 c-19 -19 -31 -238 -25 -481 4 -186 13 -228 46 -222 19 4
29 67 31 190 l1 67 44 20 c128 56 219 242 173 353 -28 67 -111 60 -172 -14
l-27 -33 5 50 c3 27 1 58 -4 67 -12 22 -52 23 -72 3z m191 -138 c4 -84 -20
-149 -79 -210 -27 -28 -51 -48 -54 -45 -3 3 -1 53 4 112 8 94 13 111 37 144
62 82 88 82 92 -1z"/>
<path d="M4141 1171 c-11 -7 -15 -49 -19 -188 -5 -204 2 -247 40 -251 25 -3
25 -3 32 95 3 54 11 148 18 209 6 62 8 119 5 128 -7 17 -53 22 -76 7z"/>
<path d="M1256 1117 c-16 -12 -21 -33 -27 -118 -11 -149 -11 -288 1 -331 11
-37 42 -68 69 -68 7 0 29 16 47 36 l34 35 11 -25 c27 -58 97 -40 131 35 22 48
38 55 38 17 0 -11 7 -35 16 -54 32 -67 94 -52 138 34 21 40 25 44 31 27 17
-52 26 -66 49 -76 36 -17 74 -3 96 34 l20 32 -1 -35 c0 -31 -7 -40 -58 -76
-63 -45 -91 -91 -91 -148 0 -69 89 -87 147 -30 33 33 70 117 79 179 6 40 15
58 46 88 37 36 88 125 88 155 0 28 -26 9 -43 -31 -9 -24 -31 -59 -47 -78 l-29
-34 2 130 2 130 -26 3 c-42 5 -55 -19 -68 -120 -12 -95 -36 -153 -62 -153 -11
0 -14 23 -14 130 l0 130 -30 3 c-43 3 -54 -8 -61 -64 -7 -54 -46 -167 -70
-202 -32 -45 -37 -26 -33 126 l4 147 -23 3 c-13 2 -33 -3 -46 -11 -15 -10 -28
-12 -37 -6 -50 31 -109 -15 -140 -109 -25 -75 -63 -157 -79 -167 -21 -13 -23
31 -10 204 20 260 20 265 -10 269 -14 2 -34 -3 -44 -11z m294 -252 c0 -27 -44
-151 -61 -172 -19 -23 -29 -14 -29 25 0 49 26 136 46 157 23 23 44 19 44 -10z
m350 -312 c0 -35 -48 -121 -70 -128 -52 -16 -44 51 11 106 43 43 59 48 59 22z"/>
<path d="M4131 676 c-7 -8 -11 -27 -9 -43 3 -24 8 -28 33 -28 35 0 60 37 44
67 -12 22 -52 24 -68 4z"/>
<path d="M2122 668 c-17 -17 -15 -57 3 -64 20 -8 19 -57 -1 -95 -17 -33 -14
-45 10 -36 39 15 82 161 56 192 -15 18 -51 20 -68 3z"/>
</g>
</svg>
